<svg width="1200" height="630" xmlns="http://www.w3.org/2000/svg">
  <defs>
    <linearGradient id="bgGradient" x1="0%" y1="0%" x2="100%" y2="100%">
      <stop offset="0%" style="stop-color:#0d0805;stop-opacity:1" />
      <stop offset="100%" style="stop-color:#1a0f0a;stop-opacity:1" />
    </linearGradient>
    <linearGradient id="goldGradient" x1="0%" y1="0%" x2="100%" y2="100%">
      <stop offset="0%" style="stop-color:#d4af37;stop-opacity:1" />
      <stop offset="100%" style="stop-color:#b8941f;stop-opacity:1" />
    </linearGradient>
  </defs>
  
  <!-- Background -->
  <rect width="1200" height="630" fill="url(#bgGradient)"/>
  
  <!-- Decorative border -->
  <rect x="30" y="30" width="1140" height="570" fill="none" stroke="url(#goldGradient)" stroke-width="4" opacity="0.6"/>
  <rect x="50" y="50" width="1100" height="530" fill="none" stroke="url(#goldGradient)" stroke-width="2" opacity="0.3"/>
  
  <!-- Corner ornaments -->
  <path d="M 50 50 L 80 50 L 50 80 Z" fill="url(#goldGradient)" opacity="0.5"/>
  <path d="M 1150 50 L 1120 50 L 1150 80 Z" fill="url(#goldGradient)" opacity="0.5"/>
  <path d="M 50 580 L 80 580 L 50 550 Z" fill="url(#goldGradient)" opacity="0.5"/>
  <path d="M 1150 580 L 1120 580 L 1150 550 Z" fill="url(#goldGradient)" opacity="0.5"/>
  
  <!-- Main title -->
  <text x="600" y="250" font-family="Playfair Display, serif" font-size="72" font-weight="900" fill="url(#goldGradient)" text-anchor="middle" dominant-baseline="middle">
    OFF DUTY PARENTS
  </text>
  <text x="600" y="320" font-family="Playfair Display, serif" font-size="56" font-weight="700" fill="url(#goldGradient)" text-anchor="middle" dominant-baseline="middle">
    ALL IN AFTER DARK
  </text>
  
  <!-- Subtitle -->
  <text x="600" y="400" font-family="Libre Baskerville, serif" font-size="32" font-style="italic" fill="#d4af37" text-anchor="middle" dominant-baseline="middle" opacity="0.9">
    Speakeasy Havdalah at The Hidden Door
  </text>
  
  <!-- Date -->
  <text x="600" y="480" font-family="Libre Baskerville, serif" font-size="24" fill="#d4af37" text-anchor="middle" dominant-baseline="middle" opacity="0.8">
    Saturday, January 24th, 2026 • 6:30 PM - 9 PM
  </text>
  
  <!-- Decorative elements -->
  <circle cx="200" cy="150" r="3" fill="url(#goldGradient)" opacity="0.6"/>
  <circle cx="1000" cy="150" r="3" fill="url(#goldGradient)" opacity="0.6"/>
  <circle cx="200" cy="480" r="3" fill="url(#goldGradient)" opacity="0.6"/>
  <circle cx="1000" cy="480" r="3" fill="url(#goldGradient)" opacity="0.6"/>
</svg>
